<svg width="539" height="69" xmlns="http://www.w3.org/2000/svg" xmlns:xlink="http://www.w3.org/1999/xlink" overflow="hidden"><defs><clipPath id="clip0"><rect x="287" y="329" width="539" height="69"/></clipPath></defs><g clip-path="url(#clip0)" transform="translate(-287 -329)"><path d="M541 330C549.004 330 557.008 330 565.012 330 565.123 334.442 565.234 338.884 565.346 343.326 577.23 343.326 589.115 343.326 601 343.326 601 348.181 601 353.036 601 357.89 589.021 357.89 577.042 357.89 565.063 357.89 565.063 363.35 565.063 368.81 565.063 374.27 565.063 376.641 566.255 378.605 568.639 380.164 571.023 381.723 573.986 382.502 577.529 382.502 585.297 382.502 593.064 382.502 600.832 382.502 600.832 387.335 600.832 392.167 600.832 397 593.12 397 585.409 397 577.697 397 567.367 397 558.668 394.781 551.601 390.343 544.534 385.906 541 380.486 541 374.084 541 359.389 541 344.695 541 330Z" fill="#FFFFFF" fill-rule="evenodd"/><path d="M475.993 342C490.996 342 505.998 342 521 342 521 360 521 378 521 396 512.951 396 504.902 396 496.853 396 496.853 382.94 496.853 369.881 496.853 356.822 489.901 356.822 482.948 356.822 475.996 356.822 470.408 356.822 465.732 357.988 461.967 360.321 458.202 362.654 456.32 365.582 456.32 369.104 456.32 372.616 458.234 375.558 462.062 377.931 465.889 380.303 470.531 381.49 475.988 381.49 481.448 381.49 486.908 381.49 492.368 381.49 492.368 386.326 492.368 391.163 492.368 396 486.951 396 481.534 396 476.117 396 463.58 396 453.093 393.422 444.656 388.265 436.219 383.109 432 376.721 432 369.1 432 361.61 436.273 355.22 444.82 349.932 453.367 344.644 463.758 342 475.993 342Z" fill="#FFFFFF" fill-rule="evenodd"/><path d="M288 342C300.288 342 312.576 342 324.863 342 335.293 342 344.071 344.18 351.197 348.541 352.979 349.631 354.538 350.778 355.874 351.981 356.85 353.086 357.827 354.191 358.803 355.295 358.803 350.864 358.803 346.432 358.803 342 364.077 342 369.352 342 374.626 342 385.081 342 393.923 344.165 401.154 348.495 408.385 352.825 412 358.106 412 364.339 412 374.893 412 385.446 412 396 403.733 396 395.467 396 387.2 396 387.2 385.445 387.2 374.891 387.2 364.336 387.2 362.249 385.96 360.45 383.48 358.938 381 357.426 377.937 356.671 374.292 356.671 369.378 356.597 364.464 356.523 359.549 356.449 360.106 357.593 360.662 358.737 361.219 359.88 361.664 361.31 361.887 362.796 361.887 364.339 361.887 374.893 361.887 385.446 361.887 396 353.905 396 345.924 396 337.942 396 337.942 385.445 337.942 374.891 337.942 364.336 337.942 362.189 336.677 360.374 334.147 358.893 331.617 357.411 328.523 356.671 324.863 356.671 320.671 356.671 316.479 356.671 312.287 356.671 312.287 369.78 312.287 382.89 312.287 396 304.191 396 296.096 396 288 396 288 378 288 360 288 342Z" fill="#FFFFFF" fill-rule="evenodd"/><path d="M656.49 343C662.994 343 669.497 343 676 343 676 347.89 676 352.78 676 357.671 669.517 357.671 663.034 357.671 656.551 357.671 654.044 357.671 651.931 358.201 650.211 359.263 648.492 360.324 647.633 361.632 647.633 363.185 647.633 374.457 647.633 385.728 647.633 397 639.422 397 631.211 397 623 397 623 385.671 623 374.342 623 363.013 623.807 357.339 627.326 352.585 633.558 348.751 639.789 344.917 647.434 343 656.49 343Z" fill="#FFFFFF" fill-rule="evenodd"/><path d="M744 343C753.846 343 762.046 344.025 768.6 346.075 775.154 348.125 780.519 351.002 784.695 354.705 788.453 350.79 793.785 347.861 800.693 345.917 807.6 343.972 816.036 343 826 343 826 347.638 826 352.276 826 356.915 816.467 357.646 809.387 359.119 804.76 361.333 800.039 364.475 797.679 367.597 797.679 370.699 797.679 373.907 799.942 376.63 804.468 378.868 808.995 381.106 816.172 382.225 826 382.225 826 387.15 826 392.075 826 397 815.672 397 807.15 395.999 800.434 393.997 793.717 391.995 788.574 388.939 785.004 384.827 775.573 392.942 761.905 397 744 397 744 392.075 744 387.15 744 382.225 754.118 382.225 761.584 380.972 766.398 378.464 771.212 375.957 773.618 372.998 773.618 369.587 773.618 366.311 772.296 363.595 769.652 361.441 762.669 358.719 754.118 357.358 744 357.358 744 352.572 744 347.786 744 343Z" fill="#FFFFFF" fill-rule="evenodd"/><path d="M698.181 330C706.121 330 714.06 330 722 330 721.871 334.667 721.741 339.333 721.612 344 713.741 344 705.871 344 698 344 698.06 339.333 698.121 334.667 698.181 330Z" fill="#FFFFFF" fill-rule="evenodd"/><path d="M698.17 347C706.114 347 714.057 347 722 347 722 363.667 722 380.333 722 397 714 397 706 397 698 397 698.057 380.333 698.114 363.667 698.17 347Z" fill="#FFFFFF" fill-rule="evenodd"/></g></svg>